<?xml version="1.0" standalone="no"?><!DOCTYPE svg PUBLIC "-//W3C//DTD SVG 1.1//EN"
        "http://www.w3.org/Graphics/SVG/1.1/DTD/svg11.dtd">
<svg t="1744215561995" class="icon" viewBox="0 0 1024 1024" version="1.1" xmlns="http://www.w3.org/2000/svg" p-id="9343"
     width="16" height="16">
    <path d="M544 800c-17.706667 0-32 14.293333-32 32l1.386667 61.76L384 781.333333V550.186667c0-6.826667-2.133333-13.333333-6.08-18.88L125.333333 192l643.84-5.226667-129.92 178.346667c-10.346667 14.293333-7.253333 34.346667 7.04 44.693333 14.293333 10.346667 34.346667 7.253333 44.693334-7.04l130.666666-179.52c12.586667-18.88 13.76-42.986667 2.986667-63.146666-10.773333-19.946667-31.466667-32.32-54.08-32.32h-645.333333c-22.613333 0-43.306667 12.373333-54.08 32.32-10.773333 20.053333-9.6 44.16 3.733333 64.106666L320 560.64v220.693333c0 20.48 10.24 39.573333 23.893333 48.426667l136.746667 120c10.133333 6.72 21.866667 10.24 33.92 10.24 10.24 0 20.373333-2.56 28.906667-7.253333 19.946667-10.666667 32.426667-31.36 32.426666-54.08V832c0.106667-17.706667-14.186667-32-31.893333-32z m-24.426667 99.093333c0-0.106667 0 0 0 0z"
          p-id="9344" fill="#8a8a8a"></path>
    <path d="M781.226667 608l105.386666-105.386667c12.48-12.48 12.48-32.746667 0-45.226666s-32.746667-12.48-45.226666 0L736 562.773333l-105.386667-105.386666c-12.48-12.48-32.746667-12.48-45.226666 0s-12.48 32.746667 0 45.226666l105.386666 105.386667-105.386666 105.386667c-12.48 12.48-12.48 32.746667 0 45.226666 6.293333 6.293333 14.4 9.386667 22.613333 9.386667s16.426667-3.093333 22.613333-9.386667l105.386667-105.386666 105.386667 105.386666c6.293333 6.293333 14.4 9.386667 22.613333 9.386667s16.426667-3.093333 22.613333-9.386667c12.48-12.48 12.48-32.746667 0-45.226666L781.226667 608z"
          p-id="9345" fill="#8a8a8a"></path>
</svg>