<?xml version="1.0" standalone="no"?><!DOCTYPE svg PUBLIC "-//W3C//DTD SVG 1.1//EN"
        "http://www.w3.org/Graphics/SVG/1.1/DTD/svg11.dtd">
<svg t="1744464105212" class="icon" viewBox="0 0 1024 1024" version="1.1" xmlns="http://www.w3.org/2000/svg" p-id="6121"
     width="200" height="200">
    <path d="M508.8 913.7c-9.3 0-18.7-0.4-27.9-1.3C377.5 903 283 847 228.2 762.6c-88.2-135.8-61.7-314.2 64.4-434l6.8-6.4c62.3-59.1 116.1-110.2 147.9-196.3 1.9-5.2 6.3-9.2 11.7-10.6 5.5-1.4 11.1 0 15.4 3.6 122.2 105.4 163.8 245.4 147 347.7 48.1-35.4 78.5-79.9 103-148.1 2.1-5.9 7.4-10.2 13.7-11.1 6.2-0.9 12.5 1.8 16.2 6.9 60.3 84.2 93.1 179.5 92.3 268.3-0.4 49.9-11.3 97.1-32.4 140.3-55.8 114.2-178.5 190.8-305.4 190.8z"
          p-id="6122" fill="#8a8a8a"></path>
</svg>