<?xml version="1.0" standalone="no"?><!DOCTYPE svg PUBLIC "-//W3C//DTD SVG 1.1//EN"
        "http://www.w3.org/Graphics/SVG/1.1/DTD/svg11.dtd">
<svg t="1744215598769" class="icon" viewBox="0 0 1024 1024" version="1.1" xmlns="http://www.w3.org/2000/svg"
     p-id="11424" width="16" height="16">
    <path d="M1005.725816 59.745654c6.712803 8.36256 12.117179 19.228199 16.326902 32.596917 4.152836 13.368718 1.649757 27.590759-7.566125 42.666122-4.152836 7.509237-8.36256 14.22204-12.515396 20.024633a233.013911 233.013911 0 0 0-10.012316 15.075363c-3.41329 5.006158-6.257698 9.614099-8.817666 13.766935l-176.808407-107.803067c5.006158-6.712803 10.865639-15.075363 17.578442-25.08768 6.655915-10.069205 12.117179-17.976659 16.270014-23.893028 11.718961-15.018475 25.485897-23.551699 41.414582-25.656561 15.871797-2.104862 29.240515-1.877309 40.106154 0.62577 11.718961 2.503079 25.941002 9.215882 42.666122 20.081521 16.668231 10.808751 30.492055 23.381035 41.357694 37.603075z m-501.582924 514.155208c2.503079-3.356402 7.964343-12.117179 16.270014-26.339219a7253.354429 7253.354429 0 0 1 73.385729-121.62689l46.989622-76.514578a29466.361263 29466.361263 0 0 0 122.878429-203.090738l176.865296 107.803067a29466.361263 29466.361263 0 0 1-122.87843 203.090738c-15.928685 25.941002-31.402265 51.483787-46.42074 76.571466-15.075363 25.030791-28.614745 47.615392-40.788812 67.696913-12.117179 20.081521-22.357048 36.579088-30.719608 49.492701a188.470481 188.470481 0 0 0-13.766935 23.21037l-13.823823 19.455751a61.26855 61.26855 0 0 1-17.521554 16.952673 1108.750277 1108.750277 0 0 1-69.574222 41.357693c-13.823823 7.509237-26.737436 14.84781-38.911503 21.958831a522.233327 522.233327 0 0 1-28.216528 15.644244c-12.515396 5.859481-22.5846 6.940356-30.093838 3.185738-7.509237-3.811507-10.467422-12.799836-8.760777-26.964989 0.796434-7.566126 1.422204-18.431764 1.877309-32.596917l1.25154-43.917661c0.398217-15.075363 1.023987-29.240515 1.877309-42.666122 0.853322-13.368718 2.104862-22.527712 3.754619-27.53387 1.706645-8.36256 3.527066-15.928685 5.688816-22.5846 2.047974-6.712803 5.57504-14.22204 10.638087-22.584601z m289.67452 33.848457a251.218123 251.218123 0 0 1 82.715388 64.568064c21.788166 26.339219 32.653805 55.40907 32.653805 87.152664 0 33.450239-11.718961 65.023169-35.156884 94.718789-23.381035 29.638732-55.750399 55.579734-97.164981 77.70923-41.357694 22.186383-89.883296 39.707937-145.46303 52.678438-55.579734 12.970501-116.05185 19.455751-181.188796 19.455751-66.900478 0-127.941476-6.257698-183.122993-18.773093-55.181517-12.572284-102.398692-29.695621-141.651524-51.483787-39.30972-21.731278-70.029327-47.217174-92.158822-76.45769C11.036303 828.020282 0 796.674905 0 763.281554c0-33.450239 10.638086-65.421386 31.971147-95.97033 21.333061-30.492055 52.052668-57.229491 92.158822-80.212308 40.163042-23.039706 89.029974-40.959477 146.771458-53.929978 57.627708-12.970501 122.87843-19.057534 195.581501-18.204211l-38.854614 80.212308a523.769307 523.769307 0 0 0-116.051851 16.952672c-35.498213 9.670988-65.990268 22.357048-91.476164 38.285733-25.542785 15.871797-45.169201 33.393351-58.936136 52.62155-13.823823 19.228199-19.910857 38.911503-18.204212 58.993024 1.706645 21.731278 11.718961 41.130141 30.093838 58.310366 18.374876 17.066449 41.983464 31.516042 70.825761 43.235003 28.842298 11.718961 61.666768 20.479738 98.416521 26.339219 36.863529 5.859481 74.466604 8.760777 112.923001 8.760777 50.175359 0.853322 95.515224-2.901296 136.076484-11.263856 40.504371-8.36256 75.035486-19.626416 103.422678-33.848456 28.444081-14.22204 50.402912-30.32139 65.819604-48.29805 15.47358-17.976659 23.21037-36.579088 23.21037-55.750399 0-15.075363-3.754619-27.647647-11.263856-37.659963a106.949745 106.949745 0 0 0-26.339219-25.087679l47.672279-79.017657z"
          fill="#8a8a8a" p-id="11425"></path>
</svg>