<?xml version="1.0" standalone="no"?><!DOCTYPE svg PUBLIC "-//W3C//DTD SVG 1.1//EN"
        "http://www.w3.org/Graphics/SVG/1.1/DTD/svg11.dtd">
<svg t="1744133113618" class="icon" viewBox="0 0 1024 1024" version="1.1" xmlns="http://www.w3.org/2000/svg" p-id="1659"
     width="200" height="200">
    <path d="M870.4 51.2H153.6C97.28 51.2 51.2 97.28 51.2 153.6v563.2c0 56.32 46.08 102.4 102.4 102.4h716.8c56.32 0 102.4-46.08 102.4-102.4V153.6c0-56.32-46.08-102.4-102.4-102.4zM153.6 148.48h716.8c2.56 0 5.12 2.56 5.12 5.12v440.32H148.48V153.6c0-2.56 2.56-5.12 5.12-5.12z m716.8 573.44H153.6c-2.56 0-5.12-2.56-5.12-5.12v-25.6h727.04v25.6c0 2.56-2.56 5.12-5.12 5.12zM281.6 875.52h460.8V972.8H281.6z"
          fill="#666666" p-id="1660"></path>
</svg>