<?xml version="1.0" standalone="no"?><!DOCTYPE svg PUBLIC "-//W3C//DTD SVG 1.1//EN"
        "http://www.w3.org/Graphics/SVG/1.1/DTD/svg11.dtd">
<svg t="1744572453540" class="icon" viewBox="0 0 1024 1024" version="1.1" xmlns="http://www.w3.org/2000/svg" p-id="4810"
     width="16" height="16">
    <path d="M249.027212 1024a81.085086 81.085086 0 0 1-47.614289-15.359448 82.461037 82.461037 0 0 1-34.302767-81.917056l40.958528-251.894948a31.99885 31.99885 0 0 0-8.703687-27.647006L23.755308 466.452037a83.932984 83.932984 0 0 1-19.455301-84.988946 82.301042 82.301042 0 0 1 65.917631-55.805994L307.905096 289.306403a31.198879 31.198879 0 0 0 24.063135-17.919356l104.956229-223.351973a82.90902 82.90902 0 0 1 150.394595 0l104.540243 223.351973a31.99885 31.99885 0 0 0 24.063135 17.919356l237.463466 36.350694a83.453001 83.453001 0 0 1 46.590326 140.79494l-175.609689 180.729505a32.606828 32.606828 0 0 0-8.703687 27.647006l40.958528 251.894948a83.804988 83.804988 0 0 1-34.302767 81.917056 81.853058 81.853058 0 0 1-88.060836 4.607834l-206.712571-114.683878a32.670826 32.670826 0 0 0-30.718896 0l-207.352548 115.19586a87.964839 87.964839 0 0 1-40.446547 10.239632z"
          fill="#FEB432" p-id="4811"></path>
</svg>